<?xml version="1.0" standalone="no"?>
<!DOCTYPE svg PUBLIC "-//W3C//DTD SVG 20010904//EN"
 "http://www.w3.org/TR/2001/REC-SVG-20010904/DTD/svg10.dtd">
<svg version="1.0" xmlns="http://www.w3.org/2000/svg"
 width="784.000000pt" height="663.000000pt" viewBox="0 0 784.000000 663.000000"
 preserveAspectRatio="xMidYMid meet">

<g transform="translate(0.000000,663.000000) scale(0.100000,-0.100000)"
fill="#000000" stroke="none">
<path d="M0 3315 l0 -3315 2448 0 c1945 0 2451 3 2461 13 11 9 14 9 18 0 4
-10 305 -13 1459 -13 l1454 0 0 3315 0 3315 -3920 0 -3920 0 0 -3315z m3970
3005 c0 -5 -4 -10 -10 -10 -5 0 -10 5 -10 10 0 6 5 10 10 10 6 0 10 -4 10 -10z
m1520 6 c0 -3 -4 -8 -10 -11 -5 -3 -10 -1 -10 4 0 6 5 11 10 11 6 0 10 -2 10
-4z m244 -191 c3 -9 0 -15 -9 -15 -8 0 -15 7 -15 15 0 8 4 15 9 15 5 0 11 -7
15 -15z m-744 -350 c0 -8 -7 -15 -15 -15 -8 0 -15 7 -15 15 0 8 7 15 15 15 8
0 15 -7 15 -15z m-4730 -141 c0 -9 -5 -14 -12 -12 -18 6 -21 28 -4 28 9 0 16
-7 16 -16z m7524 -13 c9 -14 -4 -41 -19 -41 -15 0 -24 19 -17 38 5 14 28 16
36 3z m-179 -51 c3 -5 1 -10 -4 -10 -6 0 -11 5 -11 10 0 6 2 10 4 10 3 0 8 -4
11 -10z m-4565 -230 c0 -5 -4 -10 -10 -10 -5 0 -10 5 -10 10 0 6 5 10 10 10 6
0 10 -4 10 -10z m-2095 -809 c3 -5 1 -12 -5 -16 -5 -3 -10 1 -10 9 0 18 6 21
15 7z m15 -985 l0 -305 33 -3 c27 -2 33 -8 35 -30 3 -25 8 -28 38 -28 32 0 34
-2 34 -35 l0 -35 59 0 60 0 3 33 c3 28 6 32 31 29 26 -3 27 -1 27 37 0 41 0
41 39 41 l38 0 -1 78 c-1 42 0 177 2 300 l2 222 79 0 80 0 3 -232 c2 -128 2
-284 0 -345 l-3 -113 -40 0 c-39 0 -39 0 -39 -39 0 -38 -1 -39 -32 -37 -31 1
-33 -1 -36 -36 -3 -31 -7 -37 -25 -36 -55 2 -58 0 -51 -37 6 -35 6 -35 -30
-35 -34 0 -36 -1 -36 -35 l0 -35 -69 0 -70 0 -3 33 c-3 29 -6 32 -40 35 -36 3
-38 5 -38 37 0 31 -3 34 -32 37 -29 3 -33 7 -36 36 -3 29 -6 32 -37 32 -33 0
-34 1 -37 43 -3 41 -4 42 -40 45 l-38 3 0 334 c0 257 3 334 13 338 6 3 45 6
85 6 l72 1 0 -304z m1640 224 l0 -80 -80 0 -80 0 0 80 0 80 80 0 80 0 0 -80z
m800 -410 l0 -490 -275 0 -275 0 0 35 c0 33 -2 35 -35 35 -34 0 -35 1 -35 40
0 39 0 39 -37 37 l-38 -2 -3 208 -2 207 40 0 40 0 0 41 0 42 35 -6 35 -6 0 40
0 39 155 0 155 0 0 -40 c0 -39 1 -40 35 -40 l35 0 0 108 c0 59 3 137 7 175 l6
67 78 0 79 0 0 -490z m700 455 c0 -34 1 -35 40 -35 39 0 40 -1 40 -35 0 -36 7
-41 53 -37 15 2 17 -8 17 -73 0 -41 0 -78 0 -81 0 -8 -121 -15 -142 -8 -13 4
-18 16 -18 39 0 31 -3 34 -32 37 -29 3 -33 7 -36 36 l-3 33 -139 -2 -139 -2
-3 -36 c-3 -34 -5 -36 -40 -39 l-38 -3 0 -250 0 -249 40 0 40 0 0 -40 0 -40
140 0 140 0 0 40 0 40 40 0 c33 0 40 3 40 20 0 18 7 20 75 20 l75 0 0 -71 0
-71 -35 6 -35 7 0 -41 c0 -39 -1 -40 -35 -40 -33 0 -35 -2 -35 -35 l0 -35
-230 0 -230 0 0 36 c0 36 0 37 -35 31 l-35 -6 0 45 0 44 -40 -6 -40 -7 0 352
0 351 39 0 c37 0 40 2 43 33 3 30 5 32 36 29 30 -3 32 -2 32 31 0 18 3 37 7
40 3 4 105 7 225 7 l218 0 0 -35z m417 -300 c1 -181 2 -365 2 -407 l1 -78 55
0 55 0 0 -80 0 -80 -85 0 -85 0 0 30 c0 23 -4 30 -20 30 -14 0 -20 7 -20 24 0
42 -11 56 -41 56 l-29 0 0 420 0 421 83 -3 82 -3 2 -330z m371 253 l3 -78 -81
0 -80 0 0 80 0 81 78 -3 77 -3 3 -77z m2000 -55 l3 -133 64 0 65 0 0 -80 0
-80 -65 0 -65 0 0 -195 0 -195 65 0 65 0 0 -80 0 -80 -80 0 -80 0 0 35 c0 33
-2 35 -35 35 -33 0 -35 2 -35 34 0 32 -3 35 -32 38 l-33 3 -5 200 -5 200 -52
3 -53 3 0 80 0 79 39 0 c72 0 71 -2 71 141 l0 130 83 -3 82 -3 3 -132z m-552
-133 c33 0 34 -1 34 -40 0 -39 1 -40 33 -38 30 3 32 1 35 -34 3 -35 6 -38 33
-38 l29 0 0 -280 0 -280 -80 0 -80 0 0 208 c0 114 -3 237 -7 275 l-6 67 -181
-2 -181 -3 -3 -272 -2 -273 -79 0 -78 0 -5 258 c-2 141 -2 301 0 354 l4 98
222 3 c121 2 234 2 250 0 16 -2 44 -3 62 -3z m-4146 -40 c0 -39 1 -40 34 -40
34 0 46 -13 46 -50 0 -14 9 -20 33 -22 l32 -3 0 -205 0 -205 -35 0 c-33 0 -35
-2 -38 -37 -3 -36 -5 -38 -38 -38 -32 0 -34 -2 -34 -35 l0 -35 -210 0 -210 0
0 35 c0 34 -1 35 -40 35 -39 0 -40 1 -40 34 0 31 -3 34 -35 40 l-35 7 0 204 0
205 35 0 c33 0 35 2 35 35 0 34 1 35 40 35 l40 0 0 40 0 40 210 0 210 0 0 -40z
m420 -247 c0 -159 -3 -318 -7 -355 l-6 -68 -78 0 -79 0 0 355 0 355 85 0 85 0
0 -287z m2280 -68 l0 -355 -80 0 -80 0 0 355 0 355 80 0 80 0 0 -355z m730
314 c0 -41 0 -41 35 -37 l35 4 0 -188 0 -188 -260 0 -260 0 0 -50 0 -50 260 0
260 0 0 -80 0 -80 -274 0 -275 0 -3 33 c-3 29 -6 32 -40 35 -36 3 -38 5 -38
38 0 32 -2 34 -35 34 l-35 0 0 210 0 210 34 0 c33 0 35 2 38 38 3 35 5 37 36
34 30 -3 32 -2 32 31 0 18 3 37 7 40 3 4 114 7 245 7 l238 0 0 -41z m-5120
-1349 c0 -5 -5 -10 -11 -10 -5 0 -7 5 -4 10 3 6 8 10 11 10 2 0 4 -4 4 -10z
m116 -111 c10 -17 -13 -36 -27 -22 -12 12 -4 33 11 33 5 0 12 -5 16 -11z
m6414 -959 c0 -5 -4 -10 -10 -10 -5 0 -10 5 -10 10 0 6 5 10 10 10 6 0 10 -4
10 -10z m-5434 -97 c-10 -10 -19 5 -10 18 6 11 8 11 12 0 2 -7 1 -15 -2 -18z
m-1306 -48 c0 -8 -4 -15 -10 -15 -5 0 -10 7 -10 15 0 8 5 15 10 15 6 0 10 -7
10 -15z m-210 -180 c0 -8 -7 -15 -15 -15 -8 0 -15 7 -15 15 0 8 7 15 15 15 8
0 15 -7 15 -15z m522 -127 c-6 -6 -15 -9 -18 -5 -4 3 -4 14 0 23 5 13 9 15 18
6 9 -9 9 -15 0 -24z m-307 -68 c3 -5 1 -10 -4 -10 -6 0 -11 5 -11 10 0 6 2 10
4 10 3 0 8 -4 11 -10z m1242 -56 c-9 -9 -28 6 -21 18 4 6 10 6 17 -1 6 -6 8
-13 4 -17z m-387 -304 c0 -5 -4 -10 -10 -10 -5 0 -10 5 -10 10 0 6 5 10 10 10
6 0 10 -4 10 -10z m2610 -30 c0 -5 -4 -10 -10 -10 -5 0 -10 5 -10 10 0 6 5 10
10 10 6 0 10 -4 10 -10z m-3470 -16 c0 -8 -4 -12 -10 -9 -5 3 -10 10 -10 16 0
5 5 9 10 9 6 0 10 -7 10 -16z"/>
<path d="M2934 3416 c-3 -7 -4 -17 -3 -22 6 -34 -2 -44 -36 -44 l-35 0 0 -115
0 -115 40 0 40 0 0 -40 0 -40 145 0 144 0 3 73 c2 39 2 109 0 155 l-3 82 -35
0 c-33 0 -34 1 -34 40 l0 40 -110 0 c-84 0 -112 -3 -116 -14z"/>
<path d="M1857 3423 c-4 -3 -7 -21 -7 -40 0 -31 -2 -33 -35 -33 l-35 0 0 -115
0 -115 34 0 c33 0 35 -2 38 -37 l3 -38 123 -3 122 -3 0 41 c0 40 0 40 38 40
l37 0 -3 118 -3 117 -32 0 c-30 0 -32 3 -35 38 l-3 37 -118 0 c-65 0 -121 -3
-124 -7z"/>
<path d="M5170 3380 l0 -50 180 0 180 0 0 50 0 50 -180 0 -180 0 0 -50z"/>
</g>
</svg>
